<svg width="272" height="26" viewBox="0 0 272 26" fill="none" xmlns="http://www.w3.org/2000/svg">
<g clip-path="url(#clip0_223_9927)">
<path d="M23.167 17.5248L26.7521 19.2978C24.6265 22.589 20.4928 24.9399 14.7821 24.9399C6.32869 24.9399 1 20.3949 1 12.97C1 5.54506 6.32869 1 14.9388 1C20.4928 1 24.6167 3.39007 26.7129 6.61276L23.0984 8.41511C21.4234 5.64301 18.5435 4.41859 14.8703 4.41859C8.90488 4.41859 4.92795 7.31802 4.92795 12.97C4.92795 18.6219 8.89508 21.5213 14.8703 21.5213C18.5533 21.5213 21.4528 20.3263 23.167 17.5248Z" fill="#060303"/>
<path d="M52.828 5.06498H42.5331V24.2639H38.6639V5.06498H28.4375V1.67578H52.8378V5.06498H52.828Z" fill="#060303"/>
<path d="M77.2963 24.2639L67.5205 12.8425L60.7813 18.2985V24.2639H56.9121V1.67578H60.7813V14.0669L76.1307 1.67578H81.3614L70.4591 10.5798L82.0471 24.2639H77.3061H77.2963Z" fill="#060303"/>
<path d="M104.665 17.5248L108.25 19.2978C106.125 22.589 101.991 24.9399 96.2802 24.9399C87.8267 24.9399 82.498 20.3949 82.498 12.97C82.498 5.54506 87.8169 1 96.4271 1C101.981 1 106.105 3.39007 108.201 6.61276L104.587 8.41511C102.912 5.64301 100.032 4.41859 96.3585 4.41859C90.3931 4.41859 86.4162 7.31802 86.4162 12.97C86.4162 18.6219 90.3833 21.5213 96.3585 21.5213C100.042 21.5213 102.941 20.3263 104.655 17.5248H104.665Z" fill="#060303"/>
<path d="M133.316 20.8454V24.2639H112.795V1.67578H116.664V20.8454H133.316Z" fill="#060303"/>
<path d="M137.42 24.2639V1.67578H141.289V24.2639H137.42Z" fill="#060303"/>
<path d="M172.498 9.0713C172.498 13.8123 168.854 16.457 163.369 16.457H151.977V24.2639H148.107V1.67578H163.369C168.854 1.67578 172.498 4.34992 172.498 9.0615V9.0713ZM168.531 9.10068C168.531 6.20125 166.366 5.06498 163.045 5.06498H151.977V13.1364H163.045C166.366 13.1364 168.531 11.9707 168.531 9.10068Z" fill="#060303"/>
<path d="M172.086 22.4224C172.086 21.1686 173.114 20.1597 174.535 20.1597C175.955 20.1597 177.023 21.1588 177.023 22.4224C177.023 23.686 175.994 24.6166 174.535 24.6166C173.075 24.6166 172.086 23.6762 172.086 22.4224Z" fill="#060303"/>
<path d="M202.001 17.5248L205.586 19.2978C203.46 22.589 199.327 24.9399 193.616 24.9399C185.163 24.9399 179.834 20.3949 179.834 12.97C179.834 5.54506 185.163 1 193.773 1C199.327 1 203.451 3.39007 205.547 6.61276L201.932 8.41511C200.257 5.64301 197.378 4.41859 193.704 4.41859C187.739 4.41859 183.762 7.31802 183.762 12.97C183.762 18.6219 187.729 21.5213 193.704 21.5213C197.387 21.5213 200.287 20.3263 202.001 17.5248Z" fill="#060303"/>
<path d="M208.33 12.97C208.33 5.51567 213.688 1 222.367 1C231.046 1 236.404 5.51567 236.404 12.97C236.404 20.4242 231.046 24.9399 222.367 24.9399C213.688 24.9399 208.33 20.4242 208.33 12.97ZM232.437 12.97C232.437 7.48454 228.499 4.41859 222.367 4.41859C216.235 4.41859 212.268 7.48454 212.268 12.97C212.268 18.4554 216.206 21.5213 222.367 21.5213C228.528 21.5213 232.437 18.4554 232.437 12.97Z" fill="#060303"/>
<path d="M270.999 1.67578V24.2639H267.13V6.9359L256.385 19.9736H256.159L245.414 6.9359V24.2639H241.672V1.67578H245.864L256.355 14.6155L266.846 1.67578H271.009H270.999Z" fill="#060303"/>
</g>
<defs>
<clipPath id="clip0_223_9927">
<rect width="272" height="26" fill="white"/>
</clipPath>
</defs>
</svg>
